<svg width="423" height="428" viewBox="0 0 423 428" fill="none" xmlns="http://www.w3.org/2000/svg"><path fill="#FAFAFA" stroke="#000" stroke-width="5" d="M2.5 2.5h381v381H2.5z"/><path fill="#FAFAFA" stroke="#000" stroke-width="5" d="M39.5 44.5h381v381h-381z"/><path d="M124.679 234.7c0 2.9-.316 5.367-.95 7.4-.633 2-1.466 3.65-2.5 4.95-1 1.3-2.116 2.317-3.35 3.05-1.233.7-2.466 1.2-3.7 1.5-1.2.267-2.3.4-3.3.4h-9.45c-.433 0-.65-.2-.65-.6V219c0-.433.217-.65.65-.65h9.45c1.2 0 2.434.117 3.7.35 1.3.2 2.55.617 3.75 1.25 1.2.6 2.267 1.5 3.2 2.7.967 1.2 1.734 2.783 2.3 4.75.567 1.933.85 4.367.85 7.3zm-6.55 0c0-2.767-.25-4.917-.75-6.45-.466-1.567-1.1-2.683-1.9-3.35-.766-.667-1.583-1.067-2.45-1.2-.866-.167-1.666-.25-2.4-.25h-2.7c-.266 0-.433.017-.5.05-.033.033-.05.15-.05.35v22.6c0 .2.017.333.05.4.067.033.2.05.4.05h2c.8 0 1.667-.117 2.6-.35.934-.233 1.834-.75 2.7-1.55.9-.8 1.617-2.017 2.15-3.65.567-1.633.85-3.85.85-6.65zm12.5 17.3c-.434 0-.65-.2-.65-.6V219c0-.433.216-.65.65-.65h16.7c.4 0 .633.033.7.1.066.067.1.283.1.65v3.5c0 .4-.05.65-.15.75-.1.067-.317.1-.65.1h-10.3c-.234 0-.367.017-.4.05-.034.033-.05.15-.05.35v8.25c0 .2.016.333.05.4.066.033.183.05.35.05h8.1c.433 0 .683.05.75.15.066.067.1.333.1.8v3.15c0 .433-.05.7-.15.8-.067.067-.3.1-.7.1h-8.1c-.167 0-.284.017-.35.05-.034.033-.05.133-.05.3v8.55c0 .2.016.333.05.4.033.033.15.05.35.05h10.25c.466 0 .733.05.8.15.066.1.1.367.1.8v3.2c0 .467-.05.75-.15.85-.1.067-.367.1-.8.1h-16.55zm40.753-1.75c0 .8-.466 1.317-1.4 1.55-.466.167-1.05.283-1.75.35-.666.1-1.316.167-1.95.2-.6.033-1.066.05-1.4.05-4.033 0-7.266-1.45-9.7-4.35-2.433-2.9-3.65-7.167-3.65-12.8 0-5.667 1.167-9.95 3.5-12.85 2.367-2.933 5.65-4.4 9.85-4.4.334 0 .8.033 1.4.1.634.033 1.284.1 1.95.2.7.067 1.284.183 1.75.35.467.1.817.233 1.05.4.234.167.35.4.35.7v4.35c0 .9-.483 1.017-1.45.35-.666-.433-1.4-.75-2.2-.95-.8-.233-1.583-.35-2.35-.35-1.366 0-2.516.3-3.45.9-.9.567-1.616 1.383-2.15 2.45-.533 1.033-.916 2.233-1.15 3.6-.233 1.367-.35 2.867-.35 4.5 0 1.1.05 2.233.15 3.4.134 1.167.334 2.317.6 3.45.3 1.1.7 2.1 1.2 3 .534.9 1.217 1.617 2.05 2.15.867.5 1.9.75 3.1.75.867 0 1.7-.1 2.5-.3.8-.233 1.434-.483 1.9-.75.634-.4 1.05-.583 1.25-.55.234.033.35.3.35.8v3.7zm3.637-14.95c0-3.633.383-6.733 1.15-9.3.8-2.567 2.2-4.517 4.2-5.85 2.033-1.367 4.866-2.05 8.5-2.05 2.8 0 5.116.383 6.95 1.15 1.833.767 3.25 1.883 4.25 3.35 1.033 1.467 1.733 3.267 2.1 5.4.4 2.133.6 4.567.6 7.3 0 2.733-.2 5.167-.6 7.3-.367 2.1-1.067 3.883-2.1 5.35-1 1.467-2.417 2.583-4.25 3.35-1.834.767-4.15 1.15-6.95 1.15-3.634 0-6.467-.667-8.5-2-2-1.367-3.4-3.317-4.2-5.85-.767-2.567-1.15-5.667-1.15-9.3zm6.85 0c0 3.1.25 5.5.75 7.2.5 1.667 1.25 2.833 2.25 3.5 1 .667 2.316 1 3.95 1 1.6 0 2.916-.317 3.95-.95 1.033-.667 1.816-1.85 2.35-3.55.566-1.7.85-4.1.85-7.2 0-3.133-.284-5.55-.85-7.25-.534-1.733-1.317-2.933-2.35-3.6-1.034-.667-2.367-1-4-1-1.6 0-2.917.35-3.95 1.05-1 .667-1.75 1.85-2.25 3.55-.467 1.7-.7 4.117-.7 7.25zm26.885 16.7c-.434 0-.65-.2-.65-.6V219c0-.433.216-.65.65-.65h16.7c.4 0 .633.033.7.1.066.067.1.283.1.65v3.5c0 .4-.05.65-.15.75-.1.067-.317.1-.65.1h-10.3c-.234 0-.367.017-.4.05-.034.033-.05.15-.05.35v8.25c0 .2.016.333.05.4.066.033.183.05.35.05h8.1c.433 0 .683.05.75.15.066.067.1.333.1.8v3.15c0 .433-.05.7-.15.8-.067.067-.3.1-.7.1h-8.1c-.167 0-.284.017-.35.05-.034.033-.05.133-.05.3v8.55c0 .2.016.333.05.4.033.033.15.05.35.05h10.25c.466 0 .733.05.8.15.066.1.1.367.1.8v3.2c0 .467-.05.75-.15.85-.1.067-.367.1-.8.1h-16.55zm40.603-13.8c.1.133.234.2.4.2.167 0 .25-.1.25-.3.034-1.033.034-2.133 0-3.3 0-1.167-.016-2.383-.05-3.65 0-1.3-.033-2.633-.1-4-.033-1.367-.116-2.717-.25-4.05-.1-1.367-.233-2.717-.4-4.05-.033-.467.084-.7.35-.7h5.35c.2 0 .384.067.55.2.2.1.317.25.35.45.234 1.233.417 2.733.55 4.5.167 1.733.267 3.633.3 5.7.067 2.033.084 4.117.05 6.25-.033 2.1-.1 4.167-.2 6.2-.066 2-.166 3.85-.3 5.55-.1 1.667-.216 3.067-.35 4.2-.033.267-.15.433-.35.5-.166.067-.366.1-.6.1h-3.4c-.233 0-.516-.267-.85-.8l-12.9-19.3c-.033-.133-.116-.2-.25-.2-.133 0-.2.083-.2.25v9.55c.034 1.367.084 2.65.15 3.85.067 1.167.134 2.267.2 3.3.067 1 .167 1.9.3 2.7.034.433-.083.65-.35.65h-5.25c-.2 0-.416-.033-.65-.1-.2-.067-.316-.233-.35-.5-.133-1.133-.25-2.533-.35-4.2-.1-1.7-.183-3.55-.25-5.55-.066-2.033-.116-4.117-.15-6.25 0-2.133.017-4.217.05-6.25.067-2.067.167-3.967.3-5.7.134-1.767.317-3.25.55-4.45.067-.2.184-.35.35-.45.2-.133.384-.2.55-.2h3.25c.3 0 .517.15.65.45l13.05 19.4zm32.231 12.05c0 .8-.467 1.317-1.4 1.55-.467.167-1.05.283-1.75.35-.667.1-1.317.167-1.95.2-.6.033-1.067.05-1.4.05-4.034 0-7.267-1.45-9.7-4.35-2.434-2.9-3.65-7.167-3.65-12.8 0-5.667 1.166-9.95 3.5-12.85 2.366-2.933 5.65-4.4 9.85-4.4.333 0 .8.033 1.4.1.633.033 1.283.1 1.95.2.7.067 1.283.183 1.75.35.466.1.816.233 1.05.4.233.167.35.4.35.7v4.35c0 .9-.484 1.017-1.45.35-.667-.433-1.4-.75-2.2-.95-.8-.233-1.584-.35-2.35-.35-1.367 0-2.517.3-3.45.9-.9.567-1.617 1.383-2.15 2.45-.534 1.033-.917 2.233-1.15 3.6-.234 1.367-.35 2.867-.35 4.5 0 1.1.05 2.233.15 3.4.133 1.167.333 2.317.6 3.45.3 1.1.7 2.1 1.2 3 .533.9 1.216 1.617 2.05 2.15.866.5 1.9.75 3.1.75.866 0 1.7-.1 2.5-.3.8-.233 1.433-.483 1.9-.75.633-.4 1.05-.583 1.25-.55.233.033.35.3.35.8v3.7zm3.136 1.75c-.267 0-.434-.117-.5-.35-.067-.233-.05-.683.05-1.35.233-1.5.583-3.3 1.05-5.4.466-2.133 1.016-4.383 1.65-6.75.633-2.367 1.3-4.733 2-7.1.733-2.367 1.483-4.567 2.25-6.6.766-2.067 1.5-3.783 2.2-5.15.2-.3.366-.533.5-.7.166-.167.366-.25.6-.25h4.75c.266.1.483.217.65.35.166.1.333.3.5.6.7 1.367 1.433 3.083 2.2 5.15.766 2.033 1.516 4.233 2.25 6.6.733 2.367 1.416 4.75 2.05 7.15.633 2.367 1.183 4.617 1.65 6.75.466 2.1.8 3.883 1 5.35.133.667.166 1.117.1 1.35-.067.233-.25.35-.55.35h-5.15c-.267 0-.45-.067-.55-.2-.1-.167-.217-.567-.35-1.2-.134-.767-.317-1.667-.55-2.7-.2-1.067-.384-2-.55-2.8-.034-.233-.084-.367-.15-.4-.067-.067-.217-.1-.45-.1h-8.9c-.234.033-.367.067-.4.1-.034.033-.084.183-.15.45-.167.767-.367 1.683-.6 2.75-.2 1.033-.384 1.95-.55 2.75-.1.6-.2.983-.3 1.15-.1.133-.284.2-.55.2h-5.2zm9.15-12.45h6.1c.233 0 .366-.033.4-.1.066-.1.066-.267 0-.5-.434-1.7-.9-3.467-1.4-5.3-.5-1.867-1.017-3.55-1.55-5.05-.067-.3-.184-.45-.35-.45h-.35c-.134 0-.25.15-.35.45-.267.867-.584 1.883-.95 3.05-.334 1.167-.667 2.383-1 3.65-.334 1.267-.65 2.5-.95 3.7-.034.2-.034.35 0 .45.033.067.166.1.4.1zm19.19 10.6v-4.1c0-.233.067-.35.2-.35.167 0 .433.067.8.2.667.2 1.45.4 2.35.6.9.167 1.783.3 2.65.4.867.1 1.567.15 2.1.15 1.733 0 3.05-.483 3.95-1.45.933-.967 1.4-2.083 1.4-3.35 0-1.3-.467-2.35-1.4-3.15-.9-.8-2.117-1.417-3.65-1.85-.833-.2-1.783-.483-2.85-.85-1.033-.367-2.05-.883-3.05-1.55-.967-.667-1.767-1.583-2.4-2.75-.633-1.2-.95-2.717-.95-4.55 0-2.267.517-4.083 1.55-5.45 1.067-1.367 2.433-2.367 4.1-3 1.7-.667 3.5-1 5.4-1 .733 0 1.533.083 2.4.25.9.133 1.783.317 2.65.55.867.233 1.633.5 2.3.8.267.067.433.167.5.3.067.1.1.25.1.45v3.75c0 .9-.55 1.05-1.65.45-.7-.4-1.55-.75-2.55-1.05-.967-.333-2.05-.5-3.25-.5-1.467 0-2.65.383-3.55 1.15-.9.767-1.35 1.683-1.35 2.75 0 1.033.283 1.867.85 2.5s1.3 1.133 2.2 1.5c.9.367 1.833.667 2.8.9.967.233 1.85.5 2.65.8 1.333.433 2.433 1.017 3.3 1.75.9.7 1.583 1.633 2.05 2.8.467 1.167.7 2.65.7 4.45 0 2.433-.533 4.45-1.6 6.05-1.033 1.567-2.467 2.733-4.3 3.5-1.833.767-3.917 1.15-6.25 1.15-1.033 0-2.2-.1-3.5-.3-1.3-.2-2.483-.483-3.55-.85-.433-.133-.733-.267-.9-.4-.167-.167-.25-.4-.25-.7zM336.53 252c-.266 0-.433-.117-.5-.35-.066-.233-.05-.683.05-1.35.234-1.5.584-3.3 1.05-5.4.467-2.133 1.017-4.383 1.65-6.75.634-2.367 1.3-4.733 2-7.1.734-2.367 1.484-4.567 2.25-6.6.767-2.067 1.5-3.783 2.2-5.15.2-.3.367-.533.5-.7.167-.167.367-.25.6-.25h4.75c.267.1.484.217.65.35.167.1.334.3.5.6.7 1.367 1.434 3.083 2.2 5.15.767 2.033 1.517 4.233 2.25 6.6.734 2.367 1.417 4.75 2.05 7.15.634 2.367 1.184 4.617 1.65 6.75.467 2.1.8 3.883 1 5.35.134.667.167 1.117.1 1.35-.066.233-.25.35-.55.35h-5.15c-.266 0-.45-.067-.55-.2-.1-.167-.216-.567-.35-1.2-.133-.767-.316-1.667-.55-2.7-.2-1.067-.383-2-.55-2.8-.033-.233-.083-.367-.15-.4-.066-.067-.216-.1-.45-.1h-8.9c-.233.033-.366.067-.4.1-.033.033-.083.183-.15.45-.166.767-.366 1.683-.6 2.75-.2 1.033-.383 1.95-.55 2.75-.1.6-.2.983-.3 1.15-.1.133-.283.2-.55.2h-5.2zm9.15-12.45h6.1c.234 0 .367-.033.4-.1.067-.1.067-.267 0-.5-.433-1.7-.9-3.467-1.4-5.3-.5-1.867-1.016-3.55-1.55-5.05-.066-.3-.183-.45-.35-.45h-.35c-.133 0-.25.15-.35.45-.266.867-.583 1.883-.95 3.05-.333 1.167-.666 2.383-1 3.65-.333 1.267-.65 2.5-.95 3.7-.033.2-.033.35 0 .45.034.067.167.1.4.1z" fill="#000"/></svg>


